<?xml version="1.0" encoding="UTF-8" standalone="no"?>
<!-- Generator: Adobe Illustrator 15.0.2, SVG Export Plug-In . SVG Version: 6.00 Build 0)  -->

<svg
   xmlns:dc="http://purl.org/dc/elements/1.1/"
   xmlns:cc="http://creativecommons.org/ns#"
   xmlns:rdf="http://www.w3.org/1999/02/22-rdf-syntax-ns#"
   xmlns:svg="http://www.w3.org/2000/svg"
   xmlns="http://www.w3.org/2000/svg"
   xmlns:sodipodi="http://sodipodi.sourceforge.net/DTD/sodipodi-0.dtd"
   xmlns:inkscape="http://www.inkscape.org/namespaces/inkscape"
   version="1.1"
   x="0px"
   y="0px"
   width="535.42035"
   height="535.42035"
   viewBox="0 0 535.42035 535.42035"
   enable-background="new 0 0 595.276 841.89"
   xml:space="preserve"
   id="svg2"
   inkscape:version="0.47+devel r9171"
   sodipodi:docname="ODI-text-exp.svg"><metadata
   id="metadata126"><rdf:RDF><cc:Work
       rdf:about=""><dc:format>image/svg+xml</dc:format><dc:type
         rdf:resource="http://purl.org/dc/dcmitype/StillImage" /></cc:Work></rdf:RDF></metadata><defs
   id="defs124" /><sodipodi:namedview
   pagecolor="#ffffff"
   bordercolor="#666666"
   borderopacity="1"
   objecttolerance="10"
   gridtolerance="10"
   guidetolerance="10"
   inkscape:pageopacity="0"
   inkscape:pageshadow="2"
   inkscape:window-width="1236"
   inkscape:window-height="802"
   id="namedview122"
   showgrid="false"
   fit-margin-top="10"
   fit-margin-left="10"
   fit-margin-right="10"
   fit-margin-bottom="10"
   inkscape:zoom="0.61528227"
   inkscape:cx="387.47683"
   inkscape:cy="177.80061"
   inkscape:window-x="0"
   inkscape:window-y="0"
   inkscape:window-maximized="0"
   inkscape:current-layer="svg2" />
<g
   id="Layer_4"
   transform="matrix(6.1887079,0,0,6.1887079,-2734.8591,-117.81538)">
	<circle
   cx="485.16901"
   cy="62.294998"
   r="41.641998"
   id="circle5"
   sodipodi:cx="485.16901"
   sodipodi:cy="62.294998"
   sodipodi:rx="41.641998"
   sodipodi:ry="41.641998"
   style="fill:#003e7e" />
</g>
<g
   id="Layer_1"
   transform="matrix(6.1887079,0,0,6.1887079,-2734.8591,-117.81538)">
	<g
   id="g8">
		<g
   id="g10">
			<path
   d="m 458.698,80.175 c 0,1.364 -0.833,2.096 -1.849,2.096 -1.057,0 -1.789,-0.821 -1.789,-2.025 0,-1.264 0.779,-2.09 1.842,-2.09 1.093,0 1.796,0.832 1.796,2.019 z m -3.094,0.059 c 0,0.856 0.461,1.618 1.275,1.618 0.815,0 1.275,-0.75 1.275,-1.653 0,-0.797 -0.413,-1.624 -1.27,-1.624 -0.857,0 -1.28,0.791 -1.28,1.659 z"
   id="path12"
   inkscape:connector-curvature="0"
   style="fill:#ffffff" />
			<path
   d="m 459.51,79.349 0.561,1.6 c 0.095,0.266 0.172,0.502 0.23,0.738 h 0.018 c 0.065,-0.236 0.148,-0.473 0.242,-0.738 l 0.556,-1.6 h 0.543 l -1.122,2.858 h -0.496 l -1.086,-2.858 h 0.554 z"
   id="path14"
   inkscape:connector-curvature="0"
   style="fill:#ffffff" />
			<path
   d="m 462.371,80.872 c 0.012,0.703 0.454,0.992 0.98,0.992 0.371,0 0.602,-0.065 0.791,-0.148 l 0.095,0.372 c -0.184,0.083 -0.502,0.183 -0.957,0.183 -0.88,0 -1.405,-0.584 -1.405,-1.447 0,-0.863 0.508,-1.535 1.34,-1.535 0.939,0 1.182,0.815 1.182,1.34 0,0.106 -0.006,0.183 -0.018,0.242 h -2.008 z m 1.524,-0.372 c 0.006,-0.325 -0.136,-0.838 -0.721,-0.838 -0.531,0 -0.756,0.478 -0.797,0.838 h 1.518 z"
   id="path16"
   inkscape:connector-curvature="0"
   style="fill:#ffffff" />
			<path
   d="m 465,80.24 c 0,-0.337 -0.006,-0.626 -0.023,-0.892 h 0.455 l 0.023,0.567 h 0.018 c 0.13,-0.384 0.449,-0.626 0.797,-0.626 0.054,0 0.095,0.006 0.143,0.012 v 0.49 c -0.054,-0.012 -0.106,-0.012 -0.178,-0.012 -0.366,0 -0.626,0.272 -0.696,0.662 -0.012,0.071 -0.018,0.159 -0.018,0.242 v 1.523 H 465 V 80.24 z"
   id="path18"
   inkscape:connector-curvature="0"
   style="fill:#ffffff" />
			<path
   d="m 466.791,81.681 c 0.159,0.094 0.431,0.201 0.69,0.201 0.372,0 0.55,-0.183 0.55,-0.425 0,-0.248 -0.147,-0.378 -0.525,-0.52 -0.521,-0.189 -0.763,-0.467 -0.763,-0.809 0,-0.46 0.378,-0.838 0.986,-0.838 0.29,0 0.544,0.077 0.697,0.177 l -0.124,0.378 c -0.112,-0.071 -0.319,-0.171 -0.585,-0.171 -0.307,0 -0.473,0.177 -0.473,0.39 0,0.236 0.166,0.342 0.538,0.49 0.49,0.183 0.75,0.431 0.75,0.856 0,0.508 -0.396,0.862 -1.063,0.862 -0.312,0 -0.603,-0.083 -0.803,-0.201 l 0.125,-0.39 z"
   id="path20"
   inkscape:connector-curvature="0"
   style="fill:#ffffff" />
			<path
   d="m 469.451,80.872 c 0.012,0.703 0.454,0.992 0.98,0.992 0.371,0 0.602,-0.065 0.791,-0.148 l 0.095,0.372 c -0.184,0.083 -0.502,0.183 -0.957,0.183 -0.88,0 -1.405,-0.584 -1.405,-1.447 0,-0.863 0.508,-1.535 1.34,-1.535 0.939,0 1.182,0.815 1.182,1.34 0,0.106 -0.006,0.183 -0.018,0.242 h -2.008 z m 1.524,-0.372 c 0.006,-0.325 -0.136,-0.838 -0.721,-0.838 -0.531,0 -0.756,0.478 -0.797,0.838 h 1.518 z"
   id="path22"
   inkscape:connector-curvature="0"
   style="fill:#ffffff" />
			<path
   d="m 474.029,81.521 c 0,0.248 0.012,0.49 0.042,0.685 h -0.467 l -0.041,-0.36 h -0.018 c -0.16,0.225 -0.467,0.425 -0.874,0.425 -0.579,0 -0.874,-0.407 -0.874,-0.821 0,-0.691 0.614,-1.069 1.718,-1.063 v -0.059 c 0,-0.23 -0.064,-0.661 -0.649,-0.655 -0.271,0 -0.549,0.077 -0.75,0.212 l -0.118,-0.348 c 0.236,-0.148 0.585,-0.248 0.945,-0.248 0.874,0 1.086,0.596 1.086,1.163 v 1.069 z m -0.502,-0.773 c -0.566,-0.012 -1.21,0.088 -1.21,0.644 0,0.342 0.225,0.496 0.484,0.496 0.378,0 0.62,-0.236 0.702,-0.479 0.018,-0.059 0.023,-0.118 0.023,-0.165 v -0.496 z"
   id="path24"
   inkscape:connector-curvature="0"
   style="fill:#ffffff" />
			<path
   d="m 474.693,81.681 c 0.159,0.094 0.431,0.201 0.69,0.201 0.372,0 0.55,-0.183 0.55,-0.425 0,-0.248 -0.147,-0.378 -0.525,-0.52 -0.521,-0.189 -0.763,-0.467 -0.763,-0.809 0,-0.46 0.378,-0.838 0.986,-0.838 0.29,0 0.544,0.077 0.697,0.177 l -0.124,0.378 c -0.112,-0.071 -0.319,-0.171 -0.585,-0.171 -0.307,0 -0.473,0.177 -0.473,0.39 0,0.236 0.166,0.342 0.538,0.49 0.49,0.183 0.75,0.431 0.75,0.856 0,0.508 -0.396,0.862 -1.063,0.862 -0.312,0 -0.603,-0.083 -0.803,-0.201 l 0.125,-0.39 z"
   id="path26"
   inkscape:connector-curvature="0"
   style="fill:#ffffff" />
			<path
   d="m 478.228,78.286 c 0.312,-0.053 0.685,-0.089 1.092,-0.089 0.738,0 1.264,0.177 1.612,0.496 0.36,0.325 0.567,0.786 0.567,1.429 0,0.649 -0.207,1.181 -0.573,1.547 -0.378,0.372 -0.992,0.573 -1.766,0.573 -0.372,0 -0.673,-0.018 -0.933,-0.047 v -3.909 z m 0.513,3.519 c 0.13,0.018 0.318,0.023 0.52,0.023 1.104,0 1.694,-0.614 1.694,-1.689 0.006,-0.939 -0.525,-1.535 -1.612,-1.535 -0.266,0 -0.466,0.023 -0.602,0.053 v 3.148 z"
   id="path28"
   inkscape:connector-curvature="0"
   style="fill:#ffffff" />
			<path
   d="m 482.364,80.872 c 0.012,0.703 0.454,0.992 0.979,0.992 0.372,0 0.603,-0.065 0.792,-0.148 l 0.095,0.372 c -0.184,0.083 -0.502,0.183 -0.957,0.183 -0.88,0 -1.405,-0.584 -1.405,-1.447 0,-0.863 0.508,-1.535 1.34,-1.535 0.939,0 1.182,0.815 1.182,1.34 0,0.106 -0.006,0.183 -0.018,0.242 h -2.008 z m 1.524,-0.372 c 0.006,-0.325 -0.136,-0.838 -0.721,-0.838 -0.531,0 -0.756,0.478 -0.797,0.838 h 1.518 z"
   id="path30"
   inkscape:connector-curvature="0"
   style="fill:#ffffff" />
			<path
   d="m 485.194,79.349 0.561,1.6 c 0.095,0.266 0.172,0.502 0.23,0.738 h 0.018 c 0.065,-0.236 0.148,-0.473 0.242,-0.738 l 0.556,-1.6 h 0.543 l -1.122,2.858 h -0.496 l -1.086,-2.858 h 0.554 z"
   id="path32"
   inkscape:connector-curvature="0"
   style="fill:#ffffff" />
			<path
   d="m 488.049,80.872 c 0.012,0.703 0.454,0.992 0.98,0.992 0.371,0 0.602,-0.065 0.791,-0.148 l 0.095,0.372 c -0.184,0.083 -0.502,0.183 -0.957,0.183 -0.88,0 -1.405,-0.584 -1.405,-1.447 0,-0.863 0.508,-1.535 1.34,-1.535 0.939,0 1.182,0.815 1.182,1.34 0,0.106 -0.006,0.183 -0.018,0.242 h -2.008 z m 1.523,-0.372 c 0.006,-0.325 -0.136,-0.838 -0.721,-0.838 -0.531,0 -0.756,0.478 -0.797,0.838 h 1.518 z"
   id="path34"
   inkscape:connector-curvature="0"
   style="fill:#ffffff" />
			<path
   d="m 490.679,78.014 h 0.521 v 4.193 h -0.521 v -4.193 z"
   id="path36"
   inkscape:connector-curvature="0"
   style="fill:#ffffff" />
			<path
   d="m 494.619,80.754 c 0,1.057 -0.738,1.518 -1.423,1.518 -0.768,0 -1.37,-0.567 -1.37,-1.47 0,-0.951 0.632,-1.512 1.417,-1.512 0.821,0 1.376,0.596 1.376,1.464 z m -2.262,0.029 c 0,0.626 0.354,1.099 0.862,1.099 0.496,0 0.868,-0.467 0.868,-1.11 0,-0.484 -0.242,-1.092 -0.856,-1.092 -0.608,-0.001 -0.874,0.566 -0.874,1.103 z"
   id="path38"
   inkscape:connector-curvature="0"
   style="fill:#ffffff" />
			<path
   d="m 495.235,80.281 c 0,-0.366 -0.012,-0.661 -0.023,-0.933 h 0.461 l 0.029,0.49 h 0.012 c 0.207,-0.348 0.55,-0.549 1.016,-0.549 0.697,0 1.217,0.584 1.217,1.447 0,1.027 -0.632,1.535 -1.305,1.535 -0.378,0 -0.709,-0.166 -0.88,-0.449 h -0.012 v 1.553 h -0.515 v -3.094 z m 0.515,0.762 c 0,0.077 0.006,0.147 0.023,0.212 0.094,0.36 0.407,0.608 0.779,0.608 0.549,0 0.868,-0.449 0.868,-1.104 0,-0.567 -0.302,-1.057 -0.851,-1.057 -0.354,0 -0.69,0.248 -0.785,0.638 -0.018,0.065 -0.035,0.142 -0.035,0.207 v 0.496 z"
   id="path40"
   inkscape:connector-curvature="0"
   style="fill:#ffffff" />
			<path
   d="m 498.557,80.122 c 0,-0.301 -0.012,-0.538 -0.023,-0.773 h 0.455 l 0.023,0.466 h 0.018 c 0.159,-0.271 0.426,-0.525 0.903,-0.525 0.384,0 0.68,0.236 0.804,0.573 h 0.012 c 0.089,-0.166 0.206,-0.284 0.324,-0.372 0.172,-0.13 0.354,-0.201 0.626,-0.201 0.384,0 0.945,0.248 0.945,1.24 v 1.677 h -0.508 v -1.612 c 0,-0.555 -0.207,-0.88 -0.62,-0.88 -0.301,0 -0.525,0.219 -0.62,0.467 -0.023,0.077 -0.041,0.165 -0.041,0.26 v 1.766 h -0.508 v -1.712 c 0,-0.455 -0.201,-0.78 -0.597,-0.78 -0.319,0 -0.562,0.26 -0.644,0.52 -0.029,0.071 -0.042,0.165 -0.042,0.254 v 1.718 h -0.508 v -2.086 z"
   id="path42"
   inkscape:connector-curvature="0"
   style="fill:#ffffff" />
			<path
   d="m 503.734,80.872 c 0.012,0.703 0.454,0.992 0.98,0.992 0.371,0 0.602,-0.065 0.791,-0.148 l 0.095,0.372 c -0.184,0.083 -0.502,0.183 -0.957,0.183 -0.88,0 -1.405,-0.584 -1.405,-1.447 0,-0.863 0.508,-1.535 1.34,-1.535 0.939,0 1.182,0.815 1.182,1.34 0,0.106 -0.006,0.183 -0.018,0.242 h -2.008 z m 1.524,-0.372 c 0.006,-0.325 -0.136,-0.838 -0.721,-0.838 -0.531,0 -0.756,0.478 -0.797,0.838 h 1.518 z"
   id="path44"
   inkscape:connector-curvature="0"
   style="fill:#ffffff" />
			<path
   d="m 506.363,80.122 c 0,-0.301 -0.006,-0.538 -0.023,-0.773 h 0.461 l 0.029,0.472 h 0.012 c 0.142,-0.266 0.473,-0.531 0.945,-0.531 0.396,0 1.01,0.236 1.01,1.216 v 1.701 h -0.52 V 80.56 c 0,-0.46 -0.172,-0.845 -0.662,-0.845 -0.336,0 -0.602,0.242 -0.696,0.532 -0.023,0.065 -0.035,0.153 -0.035,0.242 v 1.718 h -0.521 v -2.085 z"
   id="path46"
   inkscape:connector-curvature="0"
   style="fill:#ffffff" />
			<path
   d="m 510.229,78.664 v 0.685 h 0.744 v 0.396 h -0.744 v 1.541 c 0,0.354 0.101,0.555 0.39,0.555 0.143,0 0.225,-0.012 0.302,-0.035 l 0.023,0.396 c -0.101,0.035 -0.26,0.071 -0.461,0.071 -0.242,0 -0.437,-0.083 -0.561,-0.218 -0.142,-0.16 -0.201,-0.414 -0.201,-0.75 v -1.559 h -0.442 V 79.35 h 0.442 v -0.532 l 0.508,-0.154 z"
   id="path48"
   inkscape:connector-curvature="0"
   style="fill:#ffffff" />
		</g>
		<g
   id="g50">
			<path
   d="m 473.986,85.841 v 3.98 h -0.52 v -3.98 h 0.52 z"
   id="path52"
   inkscape:connector-curvature="0"
   style="fill:#ffffff" />
			<path
   d="m 474.825,87.736 c 0,-0.301 -0.006,-0.538 -0.023,-0.773 h 0.461 l 0.029,0.472 h 0.012 c 0.142,-0.266 0.473,-0.531 0.945,-0.531 0.396,0 1.01,0.236 1.01,1.216 v 1.701 h -0.52 v -1.647 c 0,-0.46 -0.172,-0.845 -0.662,-0.845 -0.336,0 -0.602,0.242 -0.696,0.532 -0.023,0.065 -0.035,0.153 -0.035,0.242 v 1.718 h -0.521 v -2.085 z"
   id="path54"
   inkscape:connector-curvature="0"
   style="fill:#ffffff" />
			<path
   d="m 477.935,89.295 c 0.159,0.094 0.431,0.201 0.69,0.201 0.372,0 0.55,-0.183 0.55,-0.425 0,-0.248 -0.147,-0.378 -0.525,-0.52 -0.521,-0.189 -0.763,-0.467 -0.763,-0.809 0,-0.46 0.378,-0.838 0.986,-0.838 0.29,0 0.544,0.077 0.697,0.177 l -0.124,0.378 c -0.112,-0.071 -0.319,-0.171 -0.585,-0.171 -0.307,0 -0.473,0.177 -0.473,0.39 0,0.236 0.166,0.342 0.538,0.49 0.49,0.183 0.75,0.431 0.75,0.856 0,0.508 -0.396,0.862 -1.063,0.862 -0.312,0 -0.603,-0.083 -0.803,-0.201 l 0.125,-0.39 z"
   id="path56"
   inkscape:connector-curvature="0"
   style="fill:#ffffff" />
			<path
   d="m 480.9,86.278 v 0.685 h 0.744 v 0.396 H 480.9 V 88.9 c 0,0.354 0.101,0.555 0.39,0.555 0.143,0 0.225,-0.012 0.302,-0.035 l 0.023,0.396 c -0.101,0.035 -0.26,0.071 -0.461,0.071 -0.242,0 -0.437,-0.083 -0.561,-0.218 -0.142,-0.16 -0.201,-0.414 -0.201,-0.75 V 87.36 h -0.442 v -0.396 h 0.442 v -0.532 l 0.508,-0.154 z"
   id="path58"
   inkscape:connector-curvature="0"
   style="fill:#ffffff" />
			<path
   d="m 482.769,86.16 c 0,0.177 -0.124,0.319 -0.331,0.319 -0.188,0 -0.312,-0.142 -0.312,-0.319 0,-0.177 0.13,-0.325 0.324,-0.325 0.189,0 0.319,0.142 0.319,0.325 z m -0.58,3.661 v -2.858 h 0.521 v 2.858 h -0.521 z"
   id="path60"
   inkscape:connector-curvature="0"
   style="fill:#ffffff" />
			<path
   d="m 484.156,86.278 v 0.685 h 0.744 v 0.396 h -0.744 V 88.9 c 0,0.354 0.101,0.555 0.39,0.555 0.143,0 0.225,-0.012 0.302,-0.035 l 0.023,0.396 c -0.101,0.035 -0.26,0.071 -0.461,0.071 -0.242,0 -0.437,-0.083 -0.561,-0.218 -0.142,-0.16 -0.201,-0.414 -0.201,-0.75 V 87.36 h -0.442 v -0.396 h 0.442 v -0.532 l 0.508,-0.154 z"
   id="path62"
   inkscape:connector-curvature="0"
   style="fill:#ffffff" />
			<path
   d="m 487.771,89.036 c 0,0.301 0.006,0.561 0.024,0.785 h -0.461 l -0.029,-0.466 h -0.012 c -0.13,0.23 -0.438,0.531 -0.945,0.531 -0.448,0 -0.986,-0.254 -0.986,-1.252 v -1.671 h 0.52 v 1.577 c 0,0.543 0.172,0.915 0.638,0.915 0.349,0 0.591,-0.242 0.686,-0.478 0.029,-0.071 0.047,-0.166 0.047,-0.266 v -1.748 h 0.52 v 2.073 z"
   id="path64"
   inkscape:connector-curvature="0"
   style="fill:#ffffff" />
			<path
   d="m 489.222,86.278 v 0.685 h 0.744 v 0.396 h -0.744 V 88.9 c 0,0.354 0.101,0.555 0.39,0.555 0.143,0 0.225,-0.012 0.302,-0.035 l 0.023,0.396 c -0.101,0.035 -0.26,0.071 -0.461,0.071 -0.242,0 -0.437,-0.083 -0.561,-0.218 -0.142,-0.16 -0.201,-0.414 -0.201,-0.75 V 87.36 h -0.442 v -0.396 h 0.442 v -0.532 l 0.508,-0.154 z"
   id="path66"
   inkscape:connector-curvature="0"
   style="fill:#ffffff" />
			<path
   d="m 490.771,88.486 c 0.012,0.703 0.454,0.992 0.979,0.992 0.372,0 0.603,-0.065 0.792,-0.148 l 0.095,0.372 c -0.184,0.083 -0.502,0.183 -0.957,0.183 -0.88,0 -1.405,-0.584 -1.405,-1.447 0,-0.863 0.508,-1.535 1.34,-1.535 0.939,0 1.182,0.815 1.182,1.34 0,0.106 -0.006,0.183 -0.018,0.242 h -2.008 z m 1.523,-0.372 c 0.006,-0.325 -0.136,-0.838 -0.721,-0.838 -0.531,0 -0.756,0.478 -0.797,0.838 h 1.518 z"
   id="path68"
   inkscape:connector-curvature="0"
   style="fill:#ffffff" />
		</g>
		<line
   x1="455.23001"
   y1="73.558998"
   x2="511.41599"
   y2="73.558998"
   id="line70"
   style="fill:none;stroke:#ffffff;stroke-width:0.43509999" />
	</g>
</g>
<g
   id="Layer_3"
   transform="matrix(6.1887079,0,0,6.1887079,-2734.8591,-117.81538)">
	<g
   id="g73">
		<line
   x1="458.771"
   y1="51.494999"
   x2="475.31299"
   y2="51.494999"
   id="line75"
   style="fill:#ffffff" />
		<rect
   x="458.771"
   y="51.069"
   width="16.542"
   height="0.85100001"
   id="rect77"
   style="fill:#ffffff" />
	</g>
	<g
   id="g79">
		<line
   x1="457.87601"
   y1="56.264999"
   x2="476.33401"
   y2="56.264999"
   id="line81"
   style="fill:#ffffff" />
		<rect
   x="457.87601"
   y="55.84"
   width="18.458"
   height="0.85100001"
   id="rect83"
   style="fill:#ffffff" />
	</g>
	<g
   id="g85">
		<line
   x1="458.771"
   y1="61.035999"
   x2="475.31299"
   y2="61.035999"
   id="line87"
   style="fill:#ffffff" />
		<rect
   x="458.771"
   y="60.611"
   width="16.542"
   height="0.85100001"
   id="rect89"
   style="fill:#ffffff" />
	</g>
	<g
   id="g91">
		<line
   x1="467.06201"
   y1="46.931999"
   x2="467.06201"
   y2="66.139999"
   id="line93"
   style="fill:#ffffff" />
		<rect
   x="466.638"
   y="46.931999"
   width="0.85000002"
   height="19.208"
   id="rect95"
   style="fill:#ffffff" />
	</g>
	<g
   id="g97">
		<path
   d="m 467.063,65.524 c -3.164,0 -5.737,-4.098 -5.737,-9.134 0,-5.036 2.573,-9.133 5.737,-9.133 3.163,0 5.736,4.097 5.736,9.133 0,5.036 -2.572,9.134 -5.736,9.134 z m 0,-17.417 c -2.695,0 -4.888,3.715 -4.888,8.283 0,4.568 2.192,8.283 4.888,8.283 2.694,0 4.887,-3.716 4.887,-8.283 0,-4.567 -2.192,-8.283 -4.887,-8.283 z"
   id="path99"
   inkscape:connector-curvature="0"
   style="fill:#ffffff" />
	</g>
</g>
<g
   id="Layer_2"
   transform="matrix(6.1887079,0,0,6.1887079,-2734.8591,-117.81538)">
	<g
   id="g102">
		<path
   d="m 492.625,44.453 c -6.559,0 -11.875,5.316 -11.875,11.875 0,6.559 5.316,11.875 11.875,11.875 6.559,0 11.875,-5.317 11.875,-11.875 0,-6.558 -5.316,-11.875 -11.875,-11.875 z m 0,20.534 c -4.783,0 -8.66,-3.876 -8.66,-8.66 0,-4.784 3.877,-8.66 8.66,-8.66 4.783,0 8.66,3.876 8.66,8.66 0,4.784 -3.877,8.66 -8.66,8.66 z"
   id="path104"
   inkscape:connector-curvature="0"
   style="fill:#ffffff" />
	</g>
	<g
   id="g106">
		<path
   d="m 467.062,44.453 c -6.559,0 -11.875,5.316 -11.875,11.875 0,6.559 5.316,11.875 11.875,11.875 6.559,0 11.875,-5.316 11.875,-11.875 0,-6.559 -5.316,-11.875 -11.875,-11.875 z m 0,20.534 c -4.783,0 -8.66,-3.876 -8.66,-8.66 0,-4.784 3.877,-8.66 8.66,-8.66 4.783,0 8.66,3.876 8.66,8.66 0,4.784 -3.876,8.66 -8.66,8.66 z"
   id="path108"
   inkscape:connector-curvature="0"
   style="fill:#ffffff" />
	</g>
	<g
   id="g110">
		<path
   d="m 502.941,67.887 c -0.861,0 -1.559,-0.698 -1.559,-1.559 V 39.953 c 0,-0.861 0.697,-1.559 1.559,-1.559 0.862,0 1.559,0.698 1.559,1.559 v 26.375 c 0,0.86 -0.697,1.559 -1.559,1.559 z"
   id="path112"
   inkscape:connector-curvature="0"
   style="fill:#ffffff" />
	</g>
	<g
   id="g114">
		<path
   d="m 509.312,67.887 c -0.859,0 -1.558,-0.696 -1.559,-1.556 l -0.042,-20.125 c -0.002,-0.861 0.694,-1.561 1.556,-1.562 10e-4,0 0.002,0 0.003,0 0.859,0 1.558,0.696 1.559,1.556 l 0.042,20.125 c 0.002,0.861 -0.694,1.561 -1.556,1.562 -10e-4,0 -0.002,0 -0.003,0 z"
   id="path116"
   inkscape:connector-curvature="0"
   style="fill:#ffffff" />
	</g>
	<g
   id="g118">
		<path
   d="m 509.27,41.39 c -0.42,0 -0.81,-0.17 -1.1,-0.46 -0.3,-0.29 -0.46,-0.68 -0.46,-1.1 0,-0.41 0.17,-0.82 0.46,-1.11 0.58,-0.57 1.63,-0.57 2.2,0 0.29,0.29 0.46,0.7 0.46,1.11 0,0.41 -0.16,0.81 -0.46,1.1 -0.29,0.29 -0.681,0.46 -1.1,0.46 z"
   id="path120"
   inkscape:connector-curvature="0"
   style="fill:#ffffff" />
	</g>
</g>
</svg>